<svg xmlns="http://www.w3.org/2000/svg" width="65" height="65" fill="none"><circle cx="32.5" cy="32.5" r="32.5" fill="#fff"/><g clip-path="url(#a)"><path fill="#FFCDBF" d="M48.538 30.443c-1.397-1.287-2.85.165-2.975.279l-5.968 4.948s-.088-1.7-1.877-1.7c-4.993 0-5.583-.086-6.674.329l-4.013 1.671 3.026 8.028c3.027-1.26 2.009-1.134 7.704-1.134.686-.032 2.202-.262 3.345-1.573l7.338-7.884c.232-.266 1.348-1.732.094-2.964"/><path fill="#FFBEAB" d="m28.405 35.398-1.374.572L30.057 44c.58-.242 1.01-.432 1.37-.582z"/><path fill="#54A0FF" d="M42.75 26.36h-.837a.06.06 0 0 1-.057-.048 3.8 3.8 0 0 0-.555-1.337.06.06 0 0 1 .008-.075l.592-.592a.29.29 0 0 0 0-.412l-.606-.606a.29.29 0 0 0-.412 0l-.593.592a.06.06 0 0 1-.074.007 3.8 3.8 0 0 0-1.337-.554.06.06 0 0 1-.048-.058v-.837a.29.29 0 0 0-.292-.292h-.857a.29.29 0 0 0-.291.292v.837a.06.06 0 0 1-.048.058 3.8 3.8 0 0 0-1.337.554.06.06 0 0 1-.075-.007l-.592-.592a.29.29 0 0 0-.317-.063.3.3 0 0 0-.095.063l-.606.606a.29.29 0 0 0 0 .412l.592.592a.06.06 0 0 1 .007.075 3.8 3.8 0 0 0-.554 1.337.06.06 0 0 1-.058.048h-.837a.29.29 0 0 0-.291.291v.857a.29.29 0 0 0 .291.292h.838a.06.06 0 0 1 .058.048c.097.477.285.93.554 1.337a.06.06 0 0 1-.008.074l-.592.593a.29.29 0 0 0 0 .412l.606.606a.3.3 0 0 0 .318.063.3.3 0 0 0 .095-.063l.592-.592a.06.06 0 0 1 .074-.008c.406.269.86.457 1.337.554a.06.06 0 0 1 .048.058v.838a.29.29 0 0 0 .292.291h.857a.29.29 0 0 0 .291-.291v-.838a.06.06 0 0 1 .048-.058 3.8 3.8 0 0 0 1.337-.554.06.06 0 0 1 .075.008l.592.592a.3.3 0 0 0 .318.063.3.3 0 0 0 .094-.063l.606-.606a.29.29 0 0 0 0-.412l-.592-.593a.06.06 0 0 1-.007-.074 3.8 3.8 0 0 0 .554-1.337.06.06 0 0 1 .058-.048h.837a.29.29 0 0 0 .292-.292v-.857a.29.29 0 0 0-.292-.291m-4.635 2.564a1.844 1.844 0 1 1 0-3.688 1.844 1.844 0 0 1 0 3.688"/><path fill="#338DEF" d="M38.831 23.277v-.837a.29.29 0 0 0-.291-.292h-.858a.29.29 0 0 0-.291.292v.837a.06.06 0 0 1-.048.058 3.8 3.8 0 0 0-1.337.554.06.06 0 0 1-.074-.007l-.593-.592a.29.29 0 0 0-.317-.063.3.3 0 0 0-.095.063l-.606.606a.29.29 0 0 0 0 .412l.592.592a.06.06 0 0 1 .007.075c-.268.406-.456.86-.554 1.337a.06.06 0 0 1-.057.048h-.838a.29.29 0 0 0-.291.291v.857a.29.29 0 0 0 .291.292h.838a.06.06 0 0 1 .058.048c.097.477.285.93.554 1.337a.06.06 0 0 1-.008.074l-.592.593a.29.29 0 0 0-.078.269 1.775 1.775 0 0 0 2.212-.237l.903-.903a2 2 0 0 0 .143-.163 1.844 1.844 0 1 1 1.243-3.472 1.77 1.77 0 0 0 .705-1.414V23.5a4 4 0 0 0-.57-.165.06.06 0 0 1-.048-.058"/><path fill="#FFBEAB" d="M39.6 35.661a1.5 1.5 0 0 1-.122.462c-.179.392-.466.617-.877.686a766 766 0 0 1-4.913.797.504.504 0 0 0-.416.575.5.5 0 0 0 .574.416c.036-.005 3.54-.563 4.923-.798.743-.126 1.304-.562 1.622-1.259.196-.43.264-.916.196-1.407l-.035-.25-.951.788z"/><path fill="#E4EAF8" d="M37.674 22.224h-1.247a.09.09 0 0 1-.086-.07 5.7 5.7 0 0 0-.825-1.992.09.09 0 0 1 .011-.111l.882-.882a.434.434 0 0 0 0-.614l-.903-.902a.434.434 0 0 0-.614 0l-.882.882a.09.09 0 0 1-.11.01 5.7 5.7 0 0 0-1.992-.825.09.09 0 0 1-.07-.086v-1.247a.434.434 0 0 0-.435-.434h-1.276a.433.433 0 0 0-.434.434v1.247c0 .042-.03.078-.071.086a5.7 5.7 0 0 0-1.991.825.09.09 0 0 1-.111-.01l-.882-.882a.434.434 0 0 0-.614 0l-.902.902a.434.434 0 0 0 0 .614l.881.882c.03.03.034.076.011.111a5.7 5.7 0 0 0-.825 1.991.09.09 0 0 1-.086.071h-1.247a.433.433 0 0 0-.434.434v1.276a.435.435 0 0 0 .434.435h1.247c.042 0 .078.03.086.07.145.711.425 1.387.825 1.992a.09.09 0 0 1-.01.11l-.883.883a.434.434 0 0 0 0 .614l.903.902a.434.434 0 0 0 .614 0l.882-.882a.09.09 0 0 1 .11-.01c.606.4 1.282.68 1.992.824.041.009.07.044.07.087v1.246a.435.435 0 0 0 .435.435h1.276a.435.435 0 0 0 .434-.435V28.96c0-.043.03-.078.071-.087a5.7 5.7 0 0 0 1.991-.825.09.09 0 0 1 .111.011l.882.882a.434.434 0 0 0 .614 0l.903-.902a.434.434 0 0 0 0-.614l-.882-.882a.09.09 0 0 1-.011-.111c.4-.605.68-1.281.825-1.991a.09.09 0 0 1 .086-.071h1.247a.434.434 0 0 0 .434-.434v-1.277a.433.433 0 0 0-.434-.434"/><path fill="#1DD1A1" d="M30.776 26.826a3.526 3.526 0 1 0 0-7.053 3.526 3.526 0 0 0 0 7.053"/><path fill="#D8DCE5" d="M26.46 28.036a.435.435 0 0 1 0-.614l.881-.882a.09.09 0 0 0 .011-.111 5.7 5.7 0 0 1-.825-1.991.09.09 0 0 0-.086-.071h-1.247a.434.434 0 0 1-.434-.435v-1.276a.433.433 0 0 1 .434-.434h1.247c.042 0 .078-.03.086-.071a5.7 5.7 0 0 1 .825-1.991.09.09 0 0 0-.01-.111l-.883-.882a.434.434 0 0 1 0-.614l.54-.54-.361-.362a.434.434 0 0 0-.614 0l-.902.902a.434.434 0 0 0 0 .614l.881.882c.03.03.034.076.011.111-.4.605-.68 1.28-.825 1.991a.09.09 0 0 1-.086.071h-1.247a.435.435 0 0 0-.434.434v1.276a.435.435 0 0 0 .434.435h1.247c.042 0 .078.03.086.07.145.71.425 1.387.825 1.991a.09.09 0 0 1-.01.112l-.883.882a.434.434 0 0 0 0 .614l.903.902a.435.435 0 0 0 .614 0l.362-.362z"/><path fill="#15BA8B" d="M28.588 23.3c0-1.719 1.23-3.15 2.857-3.462a3.526 3.526 0 1 0 0 6.924 3.53 3.53 0 0 1-2.857-3.462"/><path fill="#E4EAF8" d="m30.034 24.714-.995-.976a.504.504 0 0 1 .153-.821.5.5 0 0 1 .55.105l.644.632 1.615-1.574a.501.501 0 1 1 .701.719l-1.966 1.916a.5.5 0 0 1-.702 0"/><path fill="#576574" d="m23.425 35.945-7.089 2.672a.71.71 0 0 0-.415.917l3.41 9.05a.71.71 0 0 0 .918.416l7.09-2.672z"/><path fill="#3E4B5A" d="M19.418 47.635a.75.75 0 0 1-.434.03l.346.917a.71.71 0 0 0 .917.415l7.09-2.672-.553-1.466z"/><path fill="#D8DCE5" d="M31.035 16.387a.434.434 0 0 1 .403-.432l-.03-.002H30.13a.435.435 0 0 0-.434.434v1.247a.09.09 0 0 1-.071.087s.449-.073 1.203-.085a.21.21 0 0 0 .206-.209zm0 13.818v-1.003a.246.246 0 0 0-.241-.246 8.4 8.4 0 0 1-1.22-.095l.053.011a.09.09 0 0 1 .07.087v1.247a.435.435 0 0 0 .434.434h1.276l.031-.002a.434.434 0 0 1-.403-.433"/><path fill="#E4EAF8" d="m26.124 34.923-2.702 1.019 3.912 10.383 2.703-1.019a.63.63 0 0 0 .366-.809l-3.47-9.208a.63.63 0 0 0-.809-.366"/><path fill="#D8DCE5" d="m30.406 44.495-.366-.972a.66.66 0 0 1-.29.216l-2.851 1.074-.114.043.552 1.466 2.703-1.019a.63.63 0 0 0 .366-.808"/></g><defs><clipPath id="a"><path fill="#fff" d="M15 15h35v35H15z"/></clipPath></defs></svg>