<svg xmlns="http://www.w3.org/2000/svg" width="70" height="30" fill="none"><path fill="#fff" d="M5.7 11.756c0-.781.611-1.082 1.625-1.082 1.452 0 3.288.461 4.74 1.282V7.25c-1.586-.661-3.154-.922-4.74-.922-3.881 0-6.462 2.123-6.462 5.668 0 5.527 7.264 4.646 7.264 7.03 0 .92-.764 1.221-1.835 1.221-1.586 0-3.613-.68-5.218-1.602v4.766a12.7 12.7 0 0 0 5.218 1.142c3.976 0 6.71-2.063 6.71-5.648C12.983 12.937 5.7 14 5.7 11.755m12.922-9.433-4.664 1.041-.02 16.042c0 2.964 2.123 5.147 4.952 5.147 1.568 0 2.715-.3 3.345-.661v-4.065c-.611.26-3.632 1.181-3.632-1.783v-7.11h3.632V6.67h-3.632zm9.559 5.828-.306-1.482h-4.13v17.523h4.78V12.317c1.128-1.543 3.04-1.262 3.632-1.042V6.67c-.612-.24-2.848-.681-3.976 1.482m5.142-1.482h4.798v17.523h-4.798zm0-1.522 4.798-1.082V0l-4.798 1.061zM48.1 6.328c-1.873 0-3.078.922-3.747 1.563l-.248-1.242h-4.206V30l4.78-1.061.018-5.668c.689.52 1.702 1.262 3.384 1.262 3.422 0 6.538-2.884 6.538-9.233-.02-5.807-3.173-8.972-6.519-8.972m-1.147 13.799c-1.128 0-1.797-.42-2.256-.941l-.019-7.43c.497-.581 1.185-.982 2.275-.982 1.74 0 2.944 2.043 2.944 4.667 0 2.683-1.185 4.686-2.944 4.686m22.73-4.626c0-5.127-2.37-9.173-6.901-9.173-4.55 0-7.303 4.046-7.303 9.133 0 6.028 3.25 9.072 7.914 9.072 2.275 0 3.996-.54 5.296-1.302v-4.005c-1.3.68-2.791 1.101-4.684 1.101-1.854 0-3.498-.68-3.709-3.044h9.348c0-.26.039-1.302.039-1.782m-9.444-1.903c0-2.263 1.32-3.204 2.524-3.204 1.166 0 2.408.941 2.408 3.204z"/></svg>