<svg xmlns="http://www.w3.org/2000/svg" width="112" height="30" fill="none"><path fill="#fff" d="M19.386 1.456Q17.308 0 13.965 0H5.334Q4.309 0 4.2 1.044L.695 23.46a.74.74 0 0 0 .161.605.66.66 0 0 0 .54.274h4.1q1.078 0 1.186-1.043l.971-6.044q.054-.439.378-.714.323-.275.809-.358a5.5 5.5 0 0 1 .917-.082q.43 0 1.025.055.593.055.755.055 4.639 0 7.283-2.665 2.643-2.665 2.643-7.39 0-3.24-2.077-4.698m-4.45 6.73q-.27 1.924-1.402 2.528-1.134.605-3.237.604l-1.78.055.917-5.879q.107-.604.701-.604h1.025q2.158 0 3.129.632.97.632.647 2.665M110.468 0h-3.991q-.595 0-.701.604l-3.507 22.857-.054.11q0 .275.216.522a.69.69 0 0 0 .539.247h3.561q1.023 0 1.133-1.044L111.17.824V.77q0-.77-.702-.77M62.246 8.843a.8.8 0 0 0-.215-.521q-.218-.248-.486-.248H57.39q-.594 0-.97.55l-5.719 8.571-2.373-8.241q-.271-.88-1.187-.88h-4.047q-.27 0-.485.248a.78.78 0 0 0-.215.521q0 .11 1.051 3.242 1.052 3.132 2.266 6.759t1.268 3.845q-4.424 6.155-4.423 6.593 0 .715.7.715h4.154q.594 0 .971-.55L62.14 9.228q.106-.108.107-.384m38.676-.764h-4.1q-.755 0-.916 1.813-1.404-2.197-5.126-2.198-3.884 0-6.608 2.967-2.724 2.969-2.724 6.978 0 3.242 1.861 5.165t4.99 1.923q1.565 0 3.183-.66 1.618-.658 2.535-1.757 0 .054-.107.494a3 3 0 0 0-.108.659q0 .88.701.879h3.723q1.024 0 1.186-1.044l2.212-14.34a.75.75 0 0 0-.162-.605.66.66 0 0 0-.54-.274m-7.04 10.824q-1.375 1.374-3.317 1.374-1.565 0-2.535-.88-.972-.876-.972-2.417 0-2.032 1.35-3.434 1.347-1.4 3.344-1.4 1.509 0 2.508.906.998.907.998 2.5 0 1.978-1.376 3.351M39.642 8.08h-4.1q-.755 0-.917 1.813Q33.17 7.696 29.5 7.695q-3.884 0-6.608 2.967-2.724 2.969-2.724 6.978 0 3.242 1.861 5.165t4.99 1.923q1.51 0 3.129-.66 1.618-.658 2.59-1.757-.217.659-.217 1.153 0 .88.701.879h3.723q1.023 0 1.187-1.044l2.211-14.34a.75.75 0 0 0-.162-.605.66.66 0 0 0-.539-.274m-7.04 10.851q-1.376 1.348-3.371 1.347-1.566 0-2.509-.88-.944-.876-.944-2.417 0-2.032 1.349-3.434 1.348-1.4 3.345-1.4 1.509 0 2.508.906.998.907.998 2.5 0 2.033-1.376 3.378M80.668 1.456Q78.59 0 75.246 0H66.67q-1.08 0-1.187 1.044L61.976 23.46a.74.74 0 0 0 .162.605.66.66 0 0 0 .539.274H67.1q.648 0 .863-.714l.972-6.373q.053-.439.377-.714.323-.275.81-.358.484-.081.916-.082.432 0 1.025.055.594.055.755.055 4.64 0 7.283-2.665t2.643-7.39q0-3.24-2.076-4.698m-5.53 9.038q-1.186.825-3.56.824l-1.726.055.917-5.879q.107-.604.701-.604h.97q1.187 0 1.89.11.7.11 1.348.686.648.578.647 1.676 0 2.309-1.187 3.132"/></svg>