<svg xmlns="http://www.w3.org/2000/svg" width="99" height="30" fill="none"><path fill="#fff" d="M42.38 9.797c-5.373 0-9.733 4.537-9.733 10.101S37.019 30 42.38 30s9.734-4.537 9.734-10.102c0-5.564-4.36-10.101-9.734-10.101m0 15.422c-2.821 0-5.119-2.384-5.119-5.312s2.298-5.313 5.12-5.313 5.12 2.384 5.12 5.313-2.298 5.312-5.12 5.312M74.762 6.3c1.675 0 3.037-1.41 3.037-3.152S76.437 0 74.762 0s-3.037 1.41-3.037 3.152S73.087 6.3 74.762 6.3M22.506 9.806a9 9 0 0 0-.748-.033c-2.348 0-4.575 1-6.172 2.762-1.597-1.754-3.816-2.762-6.141-2.762-4.658.005-8.45 3.928-8.45 8.762V29.59h4.551V18.669c0-2.007 1.59-3.855 3.46-4.054a4 4 0 0 1 .384-.02c2.105 0 3.824 1.783 3.835 3.968v11.024h4.654V18.648c0-1.994 1.578-3.842 3.46-4.041q.201-.019.384-.02c2.106 0 3.836 1.775 3.844 3.948V29.59h4.653V18.669c0-2.214-.79-4.35-2.215-5.995-1.42-1.658-3.374-2.677-5.5-2.868M59.279.469h-4.654v29.139h4.654zm8.908 0h-4.654v29.139h4.654zm8.905 9.809h-4.654V29.6h4.654zm21.753 9.17a9.87 9.87 0 0 0-2.7-6.815c-1.75-1.836-4.06-2.856-6.517-2.856h-.122c-2.548.033-4.959 1.08-6.76 2.961a10.25 10.25 0 0 0-2.841 7.023 10.22 10.22 0 0 0 2.822 7.214c1.851 1.941 4.302 3.014 6.912 3.014h.012c3.42 0 6.627-1.901 8.38-4.956l.223-.39-3.844-1.962-.191.325c-.971 1.65-2.638 2.624-4.49 2.624-2.368 0-4.41-1.636-5.041-3.968h14.157zm-9.401-5.284c2.125 0 4.027 1.45 4.696 3.505h-9.382c.658-2.055 2.56-3.505 4.686-3.505"/></svg>