<svg xmlns="http://www.w3.org/2000/svg" width="111" height="30" fill="none"><path fill="#fff" d="M108.932 12.497a11 11 0 0 1-2.061.995 9.5 9.5 0 0 1-2.438.626q-.531.09-1.086.15h-.011c-3.417.3-6.336-.456-8.004-2.072-.016-.01-.026-.03-.043-.043 0 .064 0 .125-.01.194a3.03 3.03 0 0 0 .734 1.95c1.354 1.6 3.958 2.473 6.986 2.52 2.016.014 3.856-.377 5.265-1.073a5.6 5.6 0 0 0 1.762-1.321 3.03 3.03 0 0 0 .766-1.943 2.86 2.86 0 0 0-.308-1.297 7 7 0 0 1-1.552 1.314m-5.954-2.21c-3.194.252-5.944-.362-7.654-1.764.05.655.306 1.276.727 1.77 1.352 1.602 3.96 2.47 6.984 2.52 2.02.014 3.859-.377 5.266-1.075a5.5 5.5 0 0 0 1.763-1.32 3.05 3.05 0 0 0 .762-1.938c0-.563-.164-1.114-.468-1.58-.439.601-2.322 2.99-7.38 3.386zm.091-1.48c2.02.013 3.858-.375 5.264-1.076a5.5 5.5 0 0 0 1.766-1.321 2.9 2.9 0 0 0 .763-1.94 2.9 2.9 0 0 0-.732-1.951C108.775.917 106.172.05 103.144 0c-2.017-.015-3.857.374-5.263 1.073a5.6 5.6 0 0 0-1.765 1.32 2.9 2.9 0 0 0-.765 1.942 2.9 2.9 0 0 0 .733 1.954c1.35 1.598 3.958 2.466 6.985 2.517zm-5.894-6.044c.735-.925 3.023-1.83 5.696-1.78 1.787.013 3.391.405 4.473.975.454.214.86.522 1.194.902a1.095 1.095 0 0 1-.012 1.563c-.731.925-3.021 1.827-5.697 1.779-1.787-.014-3.39-.406-4.477-.98a3.8 3.8 0 0 1-1.194-.904 1.24 1.24 0 0 1-.325-.789c.02-.289.141-.561.342-.766m-69.266 8.105q-1.076-1.272-3.042-1.274h-5.989l-.447 2.333h5.988c.28-.016.56.037.817.155s.482.295.659.519a2 2 0 0 1 .343 1.657l-.085.398-.03.276h-5.551a5.46 5.46 0 0 0-3.565 1.32 5.6 5.6 0 0 0-1.982 3.345l-.059.246q-.418 2.023.64 3.345 1.06 1.323 3.028 1.32h7.837l2.125-10.366q.39-1.998-.687-3.274m-3.256 11.308h-5.54a1.8 1.8 0 0 1-.827-.159 1.9 1.9 0 0 1-.675-.515q-.552-.675-.343-1.658l.06-.245a2.74 2.74 0 0 1 1-1.658 2.74 2.74 0 0 1 1.774-.675h5.518zM41.376 9.594l-2.535 12.55h-5.718a1.8 1.8 0 0 1-.826-.159 1.9 1.9 0 0 1-.675-.516q-.551-.674-.341-1.658l2.043-10.216h-2.29l-2.058 10.218q-.418 2.026.657 3.346 1.077 1.32 3.042 1.32h5.756l-.179.858a2.93 2.93 0 0 1-1.029 1.64 2.67 2.67 0 0 1-1.746.687h-7.836L27.154 30h7.836a5.36 5.36 0 0 0 3.521-1.35 5.82 5.82 0 0 0 2.027-3.315l3.168-15.741zm24.098 14.918h-7.837q-1.97 0-3.027-1.32-1.056-1.319-.641-3.344l.06-.246a5.58 5.58 0 0 1 1.967-3.345 5.46 5.46 0 0 1 3.565-1.32h5.546l.03-.276.09-.398a2.02 2.02 0 0 0-.344-1.657 1.8 1.8 0 0 0-.66-.52 1.7 1.7 0 0 0-.817-.154h-6.444l.446-2.333h6.455q1.966 0 3.042 1.275 1.072 1.274.686 3.258zm-1.82-2.331.954-4.91h-5.517a2.74 2.74 0 0 0-1.774.676 2.74 2.74 0 0 0-1.001 1.657l-.058.245q-.21.98.342 1.657a1.85 1.85 0 0 0 1.501.675zm16.863-1.658a4.7 4.7 0 0 1-.698 1.73 4.6 4.6 0 0 1-1.303 1.309 5.8 5.8 0 0 1-3.401 1.011H67.36l.473-2.332h7.756q2.296 0 2.624-1.716l.125-.547q.357-1.716-1.939-1.716h-3.488q-1.94 0-2.982-1.012-1.192-1.105-.805-3.037l.12-.552a4.7 4.7 0 0 1 .697-1.73 4.6 4.6 0 0 1 1.304-1.308 5.83 5.83 0 0 1 3.4-1.012h7.783l-.448 2.333h-7.787q-2.297 0-2.654 1.716l-.119.552q-.333 1.715 1.97 1.716h3.487q1.938 0 2.983 1.011 1.169 1.107.776 3.038zm10.48 3.958h-3.638q-1.97 0-3.043-1.321-1.07-1.32-.656-3.345l1.61-8.009h-1.428l.5-2.4h1.432l1.074-5.34h2.334l-1.073 5.34h4.835l-.5 2.4h-4.836l-1.61 8.009c-.139.654-.03 1.201.333 1.657.18.224.41.402.669.52s.54.17.823.156h3.622zM17.481 10.953a5.55 5.55 0 0 1-1.983 3.259q-1.603 1.332-3.486 1.332H4.197L2.403 24.51H.14L4.224 4.297h10.09q1.88 0 2.926 1.33 1.046 1.332.667 3.26zm-2.264 0 .412-2.059q.205-.967-.323-1.635a1.8 1.8 0 0 0-.657-.51 1.75 1.75 0 0 0-.81-.156H6.02L4.665 13.25h7.814a2.64 2.64 0 0 0 1.736-.666 2.86 2.86 0 0 0 1.006-1.63z"/><path fill="#fff" d="M61.5 6.412h-9.502a2.95 2.95 0 0 0-1.787.685 3.1 3.1 0 0 0-1.025 1.654l-.887 4.46h5.929l-.478 2.37h-5.906l-1.836 8.951h-2.301l3.169-15.783a6 6 0 0 1 2.004-3.343 5.7 5.7 0 0 1 3.59-1.336h9.504z"/></svg>